<?xml version="1.0" encoding="utf-8"?>
<svg xmlns="http://www.w3.org/2000/svg" style="margin: auto; background: transparent; display: block; shape-rendering: auto;" width="280" height="344" preserveAspectRatio="xMidYMid">
<style type="text/css">
  text {
    text-anchor: middle; font-size: 42px; opacity: 0;
  }
</style>
<g style="transform-origin: 140px 172px; transform: scale(0.525);">
<g transform="translate(140,172)">
  <g transform="translate(0,0)"><g class="path" style="transform: rotate(0deg); transform-origin: -158.67px -8.5084px; animation: 1s linear -0.586667s infinite normal forwards running spin-4161c9ca-b45a-4163-b203-b5d452c34299;"><path d="M18.71-52.19L18.71 0L5.51 0L5.51-65.90L10.59-65.90L18.71-52.19" fill="#51cacc" stroke="none" stroke-width="none" transform="translate(-170.780029296875,24.441596340603294)" style="fill: rgb(81, 202, 204);"></path></g><g class="path" style="transform: rotate(0deg); transform-origin: -118.575px 1.7866px; animation: 1s linear -0.513333s infinite normal forwards running spin-4161c9ca-b45a-4163-b203-b5d452c34299;"><path d="M77.38-22.66L77.38-22.66L77.38-22.66Q77.38-19.14 76.45-16.05L76.45-16.05L76.45-16.05Q75.51-12.97 73.85-10.35L73.85-10.35L73.85-10.35Q72.19-7.73 69.84-5.64L69.84-5.64L69.84-5.64Q67.50-3.55 64.71-2.11L64.71-2.11L64.71-2.11Q61.91-0.66 58.73 0.12L58.73 0.12L58.73 0.12Q55.55 0.90 52.19 0.90L52.19 0.90L52.19 0.90Q48.83 0.90 45.66 0.12L45.66 0.12L45.66 0.12Q42.50-0.66 39.71-2.11L39.71-2.11L39.71-2.11Q36.91-3.55 34.57-5.64L34.57-5.64L34.57-5.64Q32.23-7.73 30.57-10.35L30.57-10.35L30.57-10.35Q28.91-12.97 27.97-16.07L27.97-16.07L27.97-16.07Q27.03-19.18 27.03-22.66L27.03-22.66L27.03-22.66Q27.03-26.13 27.97-29.24L27.97-29.24L27.97-29.24Q28.91-32.34 30.57-34.96L30.57-34.96L30.57-34.96Q32.23-37.58 34.57-39.67L34.57-39.67L34.57-39.67Q36.91-41.76 39.71-43.20L39.71-43.20L39.71-43.20Q42.50-44.65 45.66-45.43L45.66-45.43L45.66-45.43Q48.83-46.21 52.19-46.21L52.19-46.21L52.19-46.21Q55.55-46.21 58.73-45.43L58.73-45.43L58.73-45.43Q61.91-44.65 64.71-43.20L64.71-43.20L64.71-43.20Q67.50-41.76 69.84-39.67L69.84-39.67L69.84-39.67Q72.19-37.58 73.85-34.96L73.85-34.96L73.85-34.96Q75.51-32.34 76.45-29.24L76.45-29.24L76.45-29.24Q77.38-26.13 77.38-22.66zM63.95-22.66L63.95-22.66L63.95-22.66Q63.95-24.53 63.73-26.62L63.73-26.62L63.73-26.62Q63.52-28.71 63.01-30.72L63.01-30.72L63.01-30.72Q62.50-32.73 61.62-34.59L61.62-34.59L61.62-34.59Q60.74-36.45 59.45-37.83L59.45-37.83L59.45-37.83Q58.16-39.22 56.37-40.06L56.37-40.06L56.37-40.06Q54.57-40.90 52.19-40.90L52.19-40.90L52.19-40.90Q49.92-40.90 48.16-40.04L48.16-40.04L48.16-40.04Q46.41-39.18 45.10-37.75L45.10-37.75L45.10-37.75Q43.79-36.33 42.91-34.45L42.91-34.45L42.91-34.45Q42.03-32.58 41.48-30.57L41.48-30.57L41.48-30.57Q40.94-28.55 40.70-26.50L40.70-26.50L40.70-26.50Q40.47-24.45 40.47-22.66L40.47-22.66L40.47-22.66Q40.47-20.86 40.70-18.81L40.70-18.81L40.70-18.81Q40.94-16.76 41.48-14.73L41.48-14.73L41.48-14.73Q42.03-12.70 42.91-10.84L42.91-10.84L42.91-10.84Q43.79-8.98 45.10-7.56L45.10-7.56L45.10-7.56Q46.41-6.13 48.16-5.27L48.16-5.27L48.16-5.27Q49.92-4.41 52.19-4.41L52.19-4.41L52.19-4.41Q54.53-4.41 56.33-5.25L56.33-5.25L56.33-5.25Q58.13-6.09 59.43-7.50L59.43-7.50L59.43-7.50Q60.74-8.91 61.60-10.74L61.60-10.74L61.60-10.74Q62.46-12.58 62.99-14.61L62.99-14.61L62.99-14.61Q63.52-16.64 63.73-18.71L63.73-18.71L63.73-18.71Q63.95-20.78 63.95-22.66" fill="#51cacc" stroke="none" stroke-width="none" transform="translate(-170.780029296875,24.441596340603294)" style="fill: rgb(157, 248, 113);"></path></g><g class="path" style="transform: rotate(0deg); transform-origin: -63.635px 1.7866px; animation: 1s linear -0.44s infinite normal forwards running spin-4161c9ca-b45a-4163-b203-b5d452c34299;"><path d="M131.13-45.12L131.13 0L117.93 0L117.93-5.39L117.93-5.39Q115.59-2.19 112.29-0.64L112.29-0.64L112.29-0.64Q108.98 0.90 105.04 0.90L105.04 0.90L105.04 0.90Q99.88 0.90 95.82-0.94L95.82-0.94L95.82-0.94Q91.76-2.77 88.95-5.96L88.95-5.96L88.95-5.96Q86.13-9.14 84.65-13.44L84.65-13.44L84.65-13.44Q83.16-17.73 83.16-22.66L83.16-22.66L83.16-22.66Q83.16-27.58 84.65-31.88L84.65-31.88L84.65-31.88Q86.13-36.17 88.95-39.36L88.95-39.36L88.95-39.36Q91.76-42.54 95.82-44.38L95.82-44.38L95.82-44.38Q99.88-46.21 105.04-46.21L105.04-46.21L105.04-46.21Q107.66-46.21 110.02-45.43L110.02-45.43L110.02-45.43Q112.38-44.65 114.36-43.22L114.36-43.22L114.36-43.22Q116.33-41.80 117.83-39.79L117.83-39.79L117.83-39.79Q119.34-37.77 120.20-35.31L120.20-35.31L126.05-45.12L131.13-45.12zM117.85-22.66L117.85-22.66L117.85-22.66Q117.85-24.41 117.68-26.37L117.68-26.37L117.68-26.37Q117.50-28.32 117.07-30.23L117.07-30.23L117.07-30.23Q116.64-32.15 115.88-33.89L115.88-33.89L115.88-33.89Q115.12-35.63 113.93-36.97L113.93-36.97L113.93-36.97Q112.73-38.32 111.05-39.10L111.05-39.10L111.05-39.10Q109.38-39.88 107.15-39.88L107.15-39.88L107.15-39.88Q104.92-39.88 103.28-39.08L103.28-39.08L103.28-39.08Q101.64-38.28 100.47-36.93L100.47-36.93L100.47-36.93Q99.30-35.59 98.54-33.83L98.54-33.83L98.54-33.83Q97.77-32.07 97.34-30.16L97.34-30.16L97.34-30.16Q96.91-28.24 96.74-26.31L96.74-26.31L96.74-26.31Q96.56-24.38 96.56-22.66L96.56-22.66L96.56-22.66Q96.56-20.94 96.74-18.98L96.74-18.98L96.74-18.98Q96.91-17.03 97.34-15.12L97.34-15.12L97.34-15.12Q97.77-13.20 98.54-11.45L98.54-11.45L98.54-11.45Q99.30-9.69 100.47-8.34L100.47-8.34L100.47-8.34Q101.64-6.99 103.28-6.19L103.28-6.19L103.28-6.19Q104.92-5.39 107.15-5.39L107.15-5.39L107.15-5.39Q109.18-5.39 110.76-6.23L110.76-6.23L110.76-6.23Q112.34-7.07 113.54-8.48L113.54-8.48L113.54-8.48Q114.73-9.88 115.55-11.68L115.55-11.68L115.55-11.68Q116.37-13.48 116.88-15.39L116.88-15.39L116.88-15.39Q117.38-17.30 117.62-19.20L117.62-19.20L117.62-19.20Q117.85-21.09 117.85-22.66" fill="#51cacc" stroke="none" stroke-width="none" transform="translate(-170.780029296875,24.441596340603294)" style="fill: rgb(224, 255, 119);"></path></g><g class="path" style="transform: rotate(0deg); transform-origin: -7.14503px -5.8934px; animation: 1s linear -0.366667s infinite normal forwards running spin-4161c9ca-b45a-4163-b203-b5d452c34299;"><path d="M187.62-61.72L187.62 0L182.54 0L176.68-9.80L176.68-9.80Q175.82-7.34 174.32-5.35L174.32-5.35L174.32-5.35Q172.81-3.36 170.84-1.93L170.84-1.93L170.84-1.93Q168.87-0.51 166.50 0.27L166.50 0.27L166.50 0.27Q164.14 1.05 161.52 1.05L161.52 1.05L161.52 1.05Q156.37 1.05 152.30-0.78L152.30-0.78L152.30-0.78Q148.24-2.62 145.43-5.80L145.43-5.80L145.43-5.80Q142.62-8.98 141.13-13.28L141.13-13.28L141.13-13.28Q139.65-17.58 139.65-22.50L139.65-22.50L139.65-22.50Q139.65-27.42 141.13-31.72L141.13-31.72L141.13-31.72Q142.62-36.02 145.43-39.18L145.43-39.18L145.43-39.18Q148.24-42.34 152.30-44.18L152.30-44.18L152.30-44.18Q156.37-46.02 161.52-46.02L161.52-46.02L161.52-46.02Q165.47-46.02 168.77-44.49L168.77-44.49L168.77-44.49Q172.07-42.97 174.41-39.73L174.41-39.73L174.41-61.72L187.62-61.72zM174.34-22.50L174.34-22.50L174.34-22.50Q174.34-24.06 174.10-25.94L174.10-25.94L174.10-25.94Q173.87-27.81 173.36-29.73L173.36-29.73L173.36-29.73Q172.85-31.64 172.03-33.44L172.03-33.44L172.03-33.44Q171.21-35.23 170.02-36.64L170.02-36.64L170.02-36.64Q168.83-38.05 167.25-38.89L167.25-38.89L167.25-38.89Q165.66-39.73 163.63-39.73L163.63-39.73L163.63-39.73Q161.41-39.73 159.77-38.93L159.77-38.93L159.77-38.93Q158.13-38.13 156.95-36.78L156.95-36.78L156.95-36.78Q155.78-35.43 155.02-33.67L155.02-33.67L155.02-33.67Q154.26-31.91 153.83-30L153.83-30L153.83-30Q153.40-28.09 153.22-26.15L153.22-26.15L153.22-26.15Q153.05-24.22 153.05-22.50L153.05-22.50L153.05-22.50Q153.05-20.78 153.22-18.85L153.22-18.85L153.22-18.85Q153.40-16.91 153.83-15L153.83-15L153.83-15Q154.26-13.09 155.02-11.31L155.02-11.31L155.02-11.31Q155.78-9.53 156.95-8.18L156.95-8.18L156.95-8.18Q158.13-6.84 159.77-6.04L159.77-6.04L159.77-6.04Q161.41-5.23 163.63-5.23L163.63-5.23L163.63-5.23Q165.86-5.23 167.54-6.02L167.54-6.02L167.54-6.02Q169.22-6.80 170.41-8.14L170.41-8.14L170.41-8.14Q171.60-9.49 172.36-11.23L172.36-11.23L172.36-11.23Q173.13-12.97 173.55-14.90L173.55-14.90L173.55-14.90Q173.98-16.84 174.16-18.79L174.16-18.79L174.16-18.79Q174.34-20.74 174.34-22.50" fill="#51cacc" stroke="none" stroke-width="none" transform="translate(-170.780029296875,24.441596340603294)" style="fill: rgb(222, 157, 214);"></path></g><g class="path" style="transform: rotate(0deg); transform-origin: 34.515px -31.5534px; animation: 1s linear -0.293333s infinite normal forwards running spin-4161c9ca-b45a-4163-b203-b5d452c34299;"><path d="M212.50-56.02L212.50-56.02L212.50-56.02Q212.50-54.53 211.93-53.20L211.93-53.20L211.93-53.20Q211.37-51.88 210.39-50.90L210.39-50.90L210.39-50.90Q209.41-49.92 208.09-49.36L208.09-49.36L208.09-49.36Q206.76-48.79 205.27-48.79L205.27-48.79L205.27-48.79Q203.79-48.79 202.48-49.36L202.48-49.36L202.48-49.36Q201.17-49.92 200.20-50.90L200.20-50.90L200.20-50.90Q199.22-51.88 198.65-53.20L198.65-53.20L198.65-53.20Q198.09-54.53 198.09-56.02L198.09-56.02L198.09-56.02Q198.09-57.50 198.65-58.81L198.65-58.81L198.65-58.81Q199.22-60.12 200.20-61.09L200.20-61.09L200.20-61.09Q201.17-62.07 202.48-62.64L202.48-62.64L202.48-62.64Q203.79-63.20 205.27-63.20L205.27-63.20L205.27-63.20Q206.76-63.20 208.09-62.64L208.09-62.64L208.09-62.64Q209.41-62.07 210.39-61.09L210.39-61.09L210.39-61.09Q211.37-60.12 211.93-58.81L211.93-58.81L211.93-58.81Q212.50-57.50 212.50-56.02" fill="#51cacc" stroke="none" stroke-width="none" transform="translate(-170.780029296875,24.441596340603294)" style="fill: rgb(255, 112, 142);"></path></g><g class="path" style="transform: rotate(0deg); transform-origin: 34.51px 1.9016px; animation: 1s linear -0.22s infinite normal forwards running spin-4161c9ca-b45a-4163-b203-b5d452c34299;"><path d="M211.91-45.08L211.91 0L198.67 0L198.67-45.08L211.91-45.08" fill="#51cacc" stroke="none" stroke-width="none" transform="translate(-170.780029296875,24.441596340603294)" style="fill: rgb(81, 202, 204);"></path></g><g class="path" style="transform: rotate(0deg); transform-origin: 75.255px 6.1416px; animation: 1s linear -0.146667s infinite normal forwards running spin-4161c9ca-b45a-4163-b203-b5d452c34299;"><path d="M269.10-25.86L269.10-25.86L269.10-25.86Q269.10-21.29 267.99-16.33L267.99-16.33L267.99-16.33Q266.88-11.37 264.88-6.60L264.88-6.60L264.88-6.60Q262.89-1.84 260.12 2.36L260.12 2.36L260.12 2.36Q257.34 6.56 254.02 9.61L254.02 9.61L249.06 6.91L249.06 6.91Q250.12 4.96 251.05 2.54L251.05 2.54L251.05 2.54Q251.99 0.12 252.75-2.60L252.75-2.60L252.75-2.60Q253.52-5.31 254.12-8.20L254.12-8.20L254.12-8.20Q254.73-11.09 255.14-13.93L255.14-13.93L255.14-13.93Q255.55-16.76 255.76-19.43L255.76-19.43L255.76-19.43Q255.98-22.11 255.98-24.41L255.98-24.41L255.98-24.41Q255.98-25.94 255.86-27.68L255.86-27.68L255.86-27.68Q255.74-29.41 255.37-31.15L255.37-31.15L255.37-31.15Q255-32.89 254.38-34.49L254.38-34.49L254.38-34.49Q253.75-36.09 252.71-37.30L252.71-37.30L252.71-37.30Q251.68-38.52 250.21-39.26L250.21-39.26L250.21-39.26Q248.75-40 246.76-40L246.76-40L246.76-40Q244.80-40 243.28-39.12L243.28-39.12L243.28-39.12Q241.76-38.24 240.59-36.82L240.59-36.82L240.59-36.82Q239.41-35.39 238.57-33.55L238.57-33.55L238.57-33.55Q237.73-31.72 237.21-29.79L237.21-29.79L237.21-29.79Q236.68-27.85 236.45-25.98L236.45-25.98L236.45-25.98Q236.21-24.10 236.21-22.62L236.21-22.62L236.21 0L222.97 0L222.97-45.12L228.05-45.12L234.10-34.61L234.10-34.61Q235.20-37.23 236.84-39.38L236.84-39.38L236.84-39.38Q238.48-41.52 240.55-43.05L240.55-43.05L240.55-43.05Q242.62-44.57 245.14-45.39L245.14-45.39L245.14-45.39Q247.66-46.21 250.59-46.21L250.59-46.21L250.59-46.21Q255.27-46.21 258.75-44.69L258.75-44.69L258.75-44.69Q262.23-43.16 264.53-40.45L264.53-40.45L264.53-40.45Q266.84-37.73 267.97-34.00L267.97-34.00L267.97-34.00Q269.10-30.27 269.10-25.86" fill="#51cacc" stroke="none" stroke-width="none" transform="translate(-170.780029296875,24.441596340603294)" style="fill: rgb(157, 248, 113);"></path></g><g class="path" style="transform: rotate(0deg); transform-origin: 128.475px 11.7466px; animation: 1s linear -0.0733333s infinite normal forwards running spin-4161c9ca-b45a-4163-b203-b5d452c34299;"><path d="M323.24-45.12L323.24-5.43L323.24-5.43Q323.24-0.04 321.64 4.73L321.64 4.73L321.64 4.73Q320.04 9.49 316.99 13.07L316.99 13.07L316.99 13.07Q313.95 16.64 309.51 18.73L309.51 18.73L309.51 18.73Q305.08 20.82 299.41 20.82L299.41 20.82L299.41 20.82Q296.29 20.82 293.11 20.12L293.11 20.12L293.11 20.12Q289.92 19.41 287.09 17.95L287.09 17.95L287.09 17.95Q284.26 16.48 282.01 14.24L282.01 14.24L282.01 14.24Q279.77 11.99 278.48 8.95L278.48 8.95L284.18 6.80L284.18 6.80Q284.92 8.71 286.11 10.31L286.11 10.31L286.11 10.31Q287.30 11.91 288.87 13.07L288.87 13.07L288.87 13.07Q290.43 14.22 292.30 14.86L292.30 14.86L292.30 14.86Q294.18 15.51 296.25 15.51L296.25 15.51L296.25 15.51Q300.16 15.51 302.79 13.91L302.79 13.91L302.79 13.91Q305.43 12.30 307.03 9.73L307.03 9.73L307.03 9.73Q308.63 7.15 309.34 3.89L309.34 3.89L309.34 3.89Q310.04 0.63 310.04-2.73L310.04-2.73L310.04-5.39L310.04-5.39Q307.70-2.19 304.39-0.64L304.39-0.64L304.39-0.64Q301.09 0.90 297.15 0.90L297.15 0.90L297.15 0.90Q291.99 0.90 287.93-0.94L287.93-0.94L287.93-0.94Q283.87-2.77 281.05-5.96L281.05-5.96L281.05-5.96Q278.24-9.14 276.76-13.44L276.76-13.44L276.76-13.44Q275.27-17.73 275.27-22.66L275.27-22.66L275.27-22.66Q275.27-27.58 276.76-31.88L276.76-31.88L276.76-31.88Q278.24-36.17 281.05-39.36L281.05-39.36L281.05-39.36Q283.87-42.54 287.93-44.38L287.93-44.38L287.93-44.38Q291.99-46.21 297.15-46.21L297.15-46.21L297.15-46.21Q299.77-46.21 302.13-45.43L302.13-45.43L302.13-45.43Q304.49-44.65 306.46-43.22L306.46-43.22L306.46-43.22Q308.44-41.80 309.94-39.79L309.94-39.79L309.94-39.79Q311.45-37.77 312.30-35.31L312.30-35.31L318.16-45.12L323.24-45.12zM309.96-22.66L309.96-22.66L309.96-22.66Q309.96-24.41 309.79-26.37L309.79-26.37L309.79-26.37Q309.61-28.32 309.18-30.23L309.18-30.23L309.18-30.23Q308.75-32.15 307.99-33.89L307.99-33.89L307.99-33.89Q307.23-35.63 306.04-36.97L306.04-36.97L306.04-36.97Q304.84-38.32 303.16-39.10L303.16-39.10L303.16-39.10Q301.48-39.88 299.26-39.88L299.26-39.88L299.26-39.88Q297.03-39.88 295.39-39.08L295.39-39.08L295.39-39.08Q293.75-38.28 292.58-36.93L292.58-36.93L292.58-36.93Q291.41-35.59 290.64-33.83L290.64-33.83L290.64-33.83Q289.88-32.07 289.45-30.16L289.45-30.16L289.45-30.16Q289.02-28.24 288.85-26.31L288.85-26.31L288.85-26.31Q288.67-24.38 288.67-22.66L288.67-22.66L288.67-22.66Q288.67-20.94 288.85-18.98L288.85-18.98L288.85-18.98Q289.02-17.03 289.45-15.12L289.45-15.12L289.45-15.12Q289.88-13.20 290.64-11.45L290.64-11.45L290.64-11.45Q291.41-9.69 292.58-8.34L292.58-8.34L292.58-8.34Q293.75-6.99 295.39-6.19L295.39-6.19L295.39-6.19Q297.03-5.39 299.26-5.39L299.26-5.39L299.26-5.39Q301.29-5.39 302.87-6.23L302.87-6.23L302.87-6.23Q304.45-7.07 305.64-8.48L305.64-8.48L305.64-8.48Q306.84-9.88 307.66-11.68L307.66-11.68L307.66-11.68Q308.48-13.48 308.98-15.39L308.98-15.39L308.98-15.39Q309.49-17.30 309.73-19.20L309.73-19.20L309.73-19.20Q309.96-21.09 309.96-22.66" fill="#51cacc" stroke="none" stroke-width="none" transform="translate(-170.780029296875,24.441596340603294)" style="fill: rgb(224, 255, 119);"></path></g><g class="path" style="transform: rotate(0deg); transform-origin: 169.18px 18.6016px; animation: 1s linear 0s infinite normal forwards running spin-4161c9ca-b45a-4163-b203-b5d452c34299;"><path d="M347.07-5.86L347.07-5.86L347.07-5.86Q347.07-4.38 346.52-3.07L346.52-3.07L346.52-3.07Q345.98-1.76 345-0.80L345-0.80L345-0.80Q344.02 0.16 342.73 0.72L342.73 0.72L342.73 0.72Q341.45 1.29 339.96 1.29L339.96 1.29L339.96 1.29Q338.48 1.29 337.19 0.72L337.19 0.72L337.19 0.72Q335.90 0.16 334.92-0.80L334.92-0.80L334.92-0.80Q333.95-1.76 333.40-3.07L333.40-3.07L333.40-3.07Q332.85-4.38 332.85-5.86L332.85-5.86L332.85-5.86Q332.85-7.30 333.40-8.61L333.40-8.61L333.40-8.61Q333.95-9.92 334.92-10.88L334.92-10.88L334.92-10.88Q335.90-11.84 337.19-12.40L337.19-12.40L337.19-12.40Q338.48-12.97 339.96-12.97L339.96-12.97L339.96-12.97Q341.45-12.97 342.73-12.40L342.73-12.40L342.73-12.40Q344.02-11.84 345-10.88L345-10.88L345-10.88Q345.98-9.92 346.52-8.61L346.52-8.61L346.52-8.61Q347.07-7.30 347.07-5.86" fill="#51cacc" stroke="none" stroke-width="none" transform="translate(-170.780029296875,24.441596340603294)" style="fill: rgb(222, 157, 214);"></path></g></g>
</g>
</g>
<style id="spin-4161c9ca-b45a-4163-b203-b5d452c34299" data-anikit="">@keyframes spin-4161c9ca-b45a-4163-b203-b5d452c34299
{
  0% {
    animation-timing-function: cubic-bezier(0.5856,0.0703,0.4143,0.9297);
    transform: rotate(0deg);
  }
  100% {
    transform: rotate(360deg);
  }
}</style></svg>